<?xml version="1.0" encoding="UTF-8" standalone="no"?>
<!-- Created with Inkscape (http://www.inkscape.org/) -->

<svg
   version="1.1"
   id="svg1"
   width="666.66669"
   height="666.66669"
   viewBox="0 0 666.66669 666.66669"
   sodipodi:docname="logocashpals2.svg"
   inkscape:version="1.4 (86a8ad7, 2024-10-11)"
   xmlns:inkscape="http://www.inkscape.org/namespaces/inkscape"
   xmlns:sodipodi="http://sodipodi.sourceforge.net/DTD/sodipodi-0.dtd"
   xmlns="http://www.w3.org/2000/svg"
   xmlns:svg="http://www.w3.org/2000/svg">
  <defs
     id="defs1" />
  <sodipodi:namedview
     id="namedview1"
     pagecolor="#505050"
     bordercolor="#eeeeee"
     borderopacity="1"
     inkscape:showpageshadow="0"
     inkscape:pageopacity="0"
     inkscape:pagecheckerboard="0"
     inkscape:deskcolor="#505050"
     inkscape:zoom="0.86443801"
     inkscape:cx="233.09942"
     inkscape:cy="279.37226"
     inkscape:window-width="1920"
     inkscape:window-height="1017"
     inkscape:window-x="-8"
     inkscape:window-y="-8"
     inkscape:window-maximized="1"
     inkscape:current-layer="g1" />
  <g
     inkscape:groupmode="layer"
     inkscape:label="Image"
     id="g1">
    <circle
       style="fill:#ffffff;fill-opacity:1;stroke-width:1.01441"
       id="path1"
       cx="333.74286"
       cy="336.05649"
       r="325.64511" />
    <path
       style="fill:#649ca7;stroke:none;stroke-width:1.13269"
       d="m 357.02473,151.45592 h -1.50862 l 4.52598,-28.72493 c -15.69657,8.62649 -19.05215,39.60468 -21.31804,55.938 -8.33471,60.07986 16.80326,122.9504 84.68184,128.5062 -19.76906,19.99159 -9.09134,35.89749 -9.05197,60.47351 0.078,48.48878 3.10844,95.255 -2.5866,143.62457 -1.94323,16.50394 -5.39418,49.01947 4.10337,63.35484 13.37417,20.18661 61.08735,13.08681 73.54025,-4.52965 9.74943,-13.79191 6.13758,-34.04708 4.64592,-49.75416 -2.18808,-23.04131 -1.25256,-46.38244 -1.25256,-69.54453 79.22693,-10.08662 170.71689,-75.83683 127.84631,-164.79031 -5.85878,-12.15648 -13.65184,-23.78164 -23.77071,-32.82295 -46.50563,-41.5532 -99.24332,-5.84802 -150.84408,-3.52067 -23.12439,1.04299 -53.30513,-9.63764 -57.00207,-36.22458 -1.61148,-11.58964 5.754,-26.48345 13.53021,-34.62993 2.89198,-3.02963 12.86545,-7.42594 12.77708,-12.08774 -0.23355,-12.31947 -24.73599,2.13456 -28.14304,4.38622 4.30467,-10.51735 12.51526,-23.40834 13.64778,-34.74893 1.46302,-14.65017 -14.81005,-3.26898 -18.67909,1.49551 -3.3241,4.09356 -6.4889,8.19589 -10.05538,12.08769 2.38067,-5.73021 13.08564,-20.44639 7.79126,-26.27169 -9.42175,-10.36656 -21.13567,22.42727 -22.87784,27.78353 m -72.41578,-27.21308 -1.50866,25.70124 h -3.01733 c -0.80876,-8.99855 -3.98979,-16.62698 -13.57795,-18.14205 v 27.21307 h -1.50866 c -0.92345,-3.88922 -9.97298,-19.83529 -14.11112,-10.09528 -3.07096,7.2282 6.33196,20.702 7.58522,28.23734 3.28592,19.75686 -3.04123,41.94353 -15.37648,57.44401 -12.78327,16.06347 -38.13425,22.94239 -55.03938,34.3931 C 144.18416,298.71 100.40807,336.16669 81.036194,387.30258 47.861431,474.87397 110.69329,576.31606 201.63254,591.522 c 38.77616,6.48374 104.20235,7.44049 126.77301,-33.38291 9.91619,-17.9354 3.73173,-55.88696 -21.16668,-57.02753 -20.63616,-0.94537 -36.72574,16.88839 -55.82049,21.01753 -33.32301,7.20599 -72.78911,-29.99943 -79.52254,-60.74646 -10.43414,-47.64558 19.95112,-90.9056 53.8753,-120.66705 11.6226,-10.19644 26.6318,-16.094 37.2637,-27.62951 13.41395,-14.55402 23.06089,-34.39546 29.98466,-52.77784 9.91156,-26.31493 14.37433,-54.59863 26.67864,-80.1274 2.84037,-5.89311 16.73815,-20.27485 10.76201,-26.29503 -7.4225,-7.4772 -19.27757,7.33145 -24.72993,11.17665 -0.66224,-15.416 -2.73374,-38.12863 -21.12127,-40.81961 m 260.99855,9.87595 c -46.78703,11.16991 -28.93372,88.95582 21.12119,77.00571 47.35335,-11.3051 26.52307,-88.3803 -21.12119,-77.00571 M 70.378944,233.8954 C 16.571561,246.26965 24.196002,344.43001 85.465564,330.3357 145.78915,316.45901 134.44487,219.16199 70.378944,233.8954 M 492.8043,388.81443 c 0,-24.46144 14.29272,-70.48362 -18.10395,-80.1274 28.62324,-12.87664 105.74819,-28.1619 96.05851,27.21308 -5.56074,31.77824 -50.73211,47.62094 -77.95456,52.91432 z"
       id="path1275" />
    <path
       style="fill:#7ab2b2;fill-opacity:1;stroke-width:1.05579"
       d="m 429.94553,583.81048 c -2.97859,-1.07473 -6.94242,-3.07889 -8.80851,-4.45369 -4.09938,-3.02015 -8.1297,-10.62591 -9.60134,-18.11906 -1.55694,-7.92747 -1.2872,-31.76149 0.5471,-48.34119 3.11388,-28.14541 3.99065,-56.17785 3.27204,-104.61496 -0.46084,-31.06244 -1.23604,-51.51789 -2.28306,-60.2433 -2.20167,-18.348 -0.57541,-26.59677 7.15049,-36.26888 1.772,-2.21838 3.01987,-4.2358 2.77304,-4.48316 -0.24684,-0.24735 -4.20998,-1.10845 -8.80699,-1.91356 -37.87793,-6.63385 -63.96338,-33.16216 -73.33785,-74.5829 -2.77176,-12.247 -3.69691,-34.08052 -2.05051,-48.39235 3.2469,-28.22464 8.3501,-45.70522 15.82125,-54.19435 4.99404,-5.67452 5.02959,-5.50054 2.32161,11.36167 -2.31694,14.4273 -1.04631,15.64189 3.83858,3.66927 6.27642,-15.38317 12.47271,-22.79695 17.01653,-20.36005 4.49564,2.41105 3.46512,9.19366 -3.19314,21.01628 -1.75457,3.11547 -2.96706,5.88801 -2.69443,6.16122 0.27263,0.2732 2.96774,-2.5096 5.98912,-6.18401 6.4267,-7.81571 10.01565,-10.88834 15.30462,-13.10286 9.79619,-4.10173 9.26102,6.33077 -1.50965,29.42887 -2.37667,5.09687 -4.32123,9.73808 -4.32123,10.31381 0,0.57572 2.49169,-0.34781 5.53707,-2.05231 8.51692,-4.76687 16.18316,-6.96584 19.3091,-5.53856 3.96125,1.80866 3.16928,4.86669 -2.42394,9.35964 -8.8977,7.14738 -12.77951,11.7955 -16.81905,20.13926 -3.61579,7.46851 -3.96542,8.97224 -3.99201,17.16907 -0.0359,11.08588 2.46557,16.93626 10.70669,25.03988 10.28096,10.10945 24.66183,15.08014 43.7057,15.1067 13.07792,0.0183 21.76249,-1.37147 52.60848,-8.41843 26.28016,-6.00389 35.56164,-7.41946 48.64706,-7.41946 38.09758,0 69.25405,26.88386 82.80085,71.44604 2.55958,8.41971 2.86169,11.07042 2.87897,25.26032 0.0182,15.00766 -0.15885,16.3892 -3.31997,25.89405 -5.68364,17.0896 -16.19606,33.21664 -30.02288,46.05787 -23.9796,22.27032 -55.89279,38.22119 -90.6661,45.31677 -6.79674,1.38688 -12.84797,2.82525 -13.44718,3.19636 -1.52849,0.94666 -1.3946,35.05177 0.22888,58.29804 0.7251,10.38247 1.31835,25.77349 1.31835,34.20227 0,14.66271 -0.12825,15.58677 -2.96741,21.38065 -6.53598,13.33799 -23.03954,20.88963 -45.54787,20.84159 -7.5569,-0.0161 -12.08207,-0.57645 -15.96241,-1.97655 z M 508.6614,385.36941 c 20.68759,-5.94848 36.69238,-14.21699 47.95521,-24.775 7.99259,-7.49242 11.56048,-13.20498 13.85634,-22.18545 4.84039,-18.93368 -2.57034,-34.47819 -18.87989,-39.60185 -7.37944,-2.31825 -25.95965,-3.11412 -36.79179,-1.57593 -14.36665,2.04009 -39.88963,9.4401 -39.88963,11.56541 0,0.42276 1.56801,1.33684 3.48445,2.03129 4.96107,1.79773 10.11809,7.21339 13.29193,13.9586 2.57667,5.47604 2.7352,6.76241 2.7352,22.1949 0,9.01007 -0.43021,22.26225 -0.95604,29.44927 l -0.95604,13.06733 3.59275,-0.77544 c 1.976,-0.42648 7.62688,-1.9354 12.55751,-3.35313 z"
       id="path1276" />
    <path
       style="fill:#7ab2b2;fill-opacity:1;stroke-width:1.05579"
       d="m 544.76346,209.77489 c -10.2333,-3.67064 -20.26571,-14.6944 -23.73883,-26.08456 -0.709,-2.32519 -1.27915,-8.74586 -1.267,-14.26816 0.0277,-12.60182 2.45202,-18.67814 10.49242,-26.29843 4.42847,-4.19707 7.10072,-5.73358 13.20086,-7.59034 17.94164,-5.46109 34.62874,1.73769 43.53448,18.78066 11.43288,21.87916 5.51793,45.11371 -13.73326,53.94574 -7.91041,3.62913 -20.69889,4.30925 -28.48867,1.51509 z"
       id="path1277" />
    <path
       style="fill:#4d869c;fill-opacity:1;stroke-width:1.05579"
       d="m 214.04795,592.68114 c -6.28752,-0.76209 -15.06773,-2.19451 -19.51157,-3.18315 -60.0468,-13.35894 -109.103606,-66.06886 -119.849286,-128.77407 -2.09104,-12.20206 -2.08039,-35.70878 0.0217,-47.81207 4.51474,-25.99507 18.38614,-54.11039 38.785826,-78.61327 23.00508,-27.6323 62.58634,-59.51475 92.501,-74.50895 27.55804,-13.81298 36.86593,-21.25193 44.11005,-35.2532 6.92248,-13.37962 9.09986,-22.00286 9.1128,-36.09006 0.0107,-11.65182 -0.15363,-12.55683 -3.97446,-21.8891 -4.3691,-10.67143 -5.16936,-16.42166 -2.6384,-18.95794 2.44323,-2.44837 5.52524,-0.29779 9.37848,6.54414 1.78619,3.17163 3.67692,5.76661 4.20163,5.76661 0.5247,0 0.954,-6.18287 0.954,-13.73971 0,-7.55683 0.26087,-13.7397 0.57972,-13.7397 0.31884,0 1.90948,0.6891 3.53476,1.53134 3.74617,1.94129 6.02623,5.42861 7.57237,11.5818 0.86029,3.42373 1.75687,4.85417 3.04253,4.85417 1.5852,0 1.90857,-1.60335 2.48058,-12.29953 0.36178,-6.76473 0.87321,-12.51542 1.13655,-12.77929 1.85493,-1.85884 11.25268,5.30581 14.0394,10.70333 2.45845,4.7617 4.38311,12.75713 5.17779,21.50956 0.71496,7.87436 1.28417,8.83581 3.58576,6.05672 0.73145,-0.88319 4.15883,-3.73683 7.6164,-6.3414 6.91263,-5.20725 10.94792,-5.98767 13.9235,-2.69278 2.61767,2.89859 1.45543,6.92868 -4.74152,16.44144 -9.12222,14.00325 -12.12068,21.6964 -23.2435,59.63585 -9.58358,32.68914 -17.31227,51.04655 -28.9334,68.72346 -7.45767,11.34385 -15.55196,18.92877 -31.6106,29.62137 -38.67569,25.75212 -66.85218,66.3102 -71.24811,102.55667 -2.56797,21.17409 1.31599,37.43769 13.07163,54.73572 13.69846,20.15684 36.37242,35.20156 55.58363,36.88107 10.47498,0.91576 16.77606,-0.95235 36.34261,-10.77471 23.60385,-11.84906 31.20011,-13.26337 41.88861,-7.79903 11.37099,5.81326 18.34162,27.67807 14.10324,44.23771 -3.5225,13.76269 -14.47227,25.94004 -30.67953,34.11901 -19.49564,9.83844 -53.69853,13.70118 -86.31416,9.74799 z"
       id="path1278" />
    <path
       style="fill:#4d869c;fill-opacity:1;stroke-width:1.05579"
       d="M 63.534318,329.6884 C 46.57973,325.10609 35.110102,307.06662 35.110102,284.9827 c 0,-26.5306 15.321724,-46.91063 38.495822,-51.20482 25.76791,-4.77482 46.388606,10.91561 50.376126,38.33155 2.25681,15.51654 -2.88136,31.95835 -13.46053,43.07284 -12.294156,12.91628 -31.234456,18.76362 -46.987202,14.50613 z"
       id="path1279" />
    <path
       style="fill:#4d869c;fill-opacity:1;stroke-width:0.912664"
       d="m 58.31306,305.23383 c 0,0 14.765524,22.1949 43.24187,-2.11381 28.47637,-24.30869 -43.24187,2.11381 -43.24187,2.11381 z"
       id="path1280" />
    <path
       style="fill:#7ab2b2;fill-opacity:1;stroke-width:0.912664"
       id="path1284"
       d="m 57.518885,293.52196 c -0.07433,2.90882 0.734143,5.05561 2.255159,7.48396 1.82442,2.53209 4.517605,4.11393 7.23353,5.51906 2.66878,1.3093 5.46926,2.27786 8.31765,3.10241 2.39163,0.70779 4.86946,0.9534 7.34796,1.09147 2.31496,0.15264 4.628075,-0.0717 6.924015,-0.35209 2.98854,-0.32039 5.712565,-1.47961 8.397225,-2.75256 2.478006,-1.18435 4.595486,-2.94054 6.599786,-4.79133 0.2532,-0.26551 0.50641,-0.53101 0.75961,-0.79651 3.29888,-3.53821 -1.69439,-8.21335 -4.99327,-4.67513 v 0 c -0.13718,0.1532 -0.27436,0.3064 -0.411526,0.4596 -1.47839,1.38917 -3.01638,2.75158 -4.85833,3.63981 -2.02519,0.95583 -4.037735,1.91292 -6.301385,2.14051 -1.911095,0.22332 -3.833395,0.42786 -5.759335,0.29897 -1.96342,-0.0955 -3.92859,-0.26716 -5.82591,-0.81802 -2.4269,-0.69429 -4.81768,-1.49002 -7.08826,-2.61194 -1.657405,-0.8471 -3.39046,-1.74442 -4.624896,-3.17298 -0.798506,-1.14793 -1.25512,-2.3362 -1.110271,-3.76523 0,-4.8622 -6.861752,-4.8622 -6.861752,0 z" />
    <path
       style="fill:#4d869c;fill-opacity:1;stroke-width:0.912664"
       id="path1285"
       d="m 544.87233,196.15199 c 3.4181,0.61106 6.86831,0.96908 10.32869,1.22292 3.05925,0.25937 6.11352,0.27111 9.17317,0.0579 2.34232,-0.21798 4.58093,-0.97069 6.73823,-1.8747 1.86434,-0.88287 3.67594,-1.88008 5.26759,-3.1969 1.40658,-1.27791 2.66226,-2.66267 3.72344,-4.24123 2.65869,-4.04883 -3.0552,-7.8167 -5.71389,-3.76786 v 0 c -0.68164,1.08866 -1.5705,1.95325 -2.49748,2.83461 -0.90421,0.96941 -2.32922,1.37626 -3.43205,2.06563 -1.46963,0.6276 -2.98579,1.17692 -4.58091,1.36704 -2.7305,0.20901 -5.45565,0.23197 -8.18885,-0.005 -3.12933,-0.22517 -6.25384,-0.53292 -9.33147,-1.16614 -4.72991,-1.0533 -6.21638,5.64988 -1.48647,6.70319 z" />
    <path
       style="fill:#cde8e5;fill-opacity:1;stroke-width:0.870198"
       id="path1294"
       d="m 411.86263,100.83632 c 3.31669,-3.171225 7.2188,-5.810795 11.08378,-8.402975 3.72474,-2.42738 1.91705,-1.25804 5.42141,-3.51014 9.55783,-6.32094 -0.25435,-18.63511 -9.81218,-12.31417 v 0 c -3.47746,2.36585 -1.66042,1.13657 -5.45305,3.68547 -3.24005,2.18755 -6.43694,4.40748 -9.56495,6.72719 -1.99668,1.48071 -2.90441,2.05657 -4.52053,3.63092 -0.49893,0.48604 -0.9506,1.01063 -1.4259,1.51594 -6.72762,9.193555 7.54381,17.861345 14.27142,8.667765 z" />
    <path
       style="fill:#cde8e5;fill-opacity:1;stroke-width:0.912664"
       id="path1295"
       d="m 375.62737,84.533065 c 1.67044,-2.48967 3.60894,-4.77718 5.47907,-7.11511 1.45094,-1.78596 3.0285,-3.45046 4.73056,-4.99478 8.73107,-8.203052 -2.84543,-20.576653 -11.57651,-12.373596 v 0 c -2.20268,2.115421 -4.30125,4.32814 -6.24154,6.690946 -1.93649,2.34512 -3.90859,4.66163 -5.79187,7.04974 -7.58034,9.49538 5.81995,20.23819 13.40029,10.7428 z" />
    <path
       style="fill:#cde8e5;fill-opacity:1;stroke-width:0.912664"
       id="path1296"
       d="m 334.15432,82.572215 c -0.10087,-4.96951 -0.45194,-9.92724 -0.84028,-14.881266 -0.0752,-0.98591 -0.15052,-1.971822 -0.22578,-2.957733 -0.92538,-11.818996 -17.60485,-10.507561 -16.67947,1.311435 v 0 c 0.0783,0.976029 0.15669,1.952058 0.23505,2.928084 0.33726,4.52265 0.66339,9.06347 0.39878,13.59948 0,12.12526 17.1117,12.12526 17.1117,0 z" />
    <path
       style="fill:#cde8e5;fill-opacity:1;stroke-width:0.912664"
       id="path1297"
       d="m 287.60323,76.603175 c 0.13223,0.10517 0.46298,0.4711 0.39671,0.31551 -0.10287,-0.2415 -0.35224,-0.38932 -0.5156,-0.59462 -0.30648,-0.38521 -0.6119,-0.77208 -0.89325,-1.17608 -1.42366,-2.04423 -2.67049,-4.21174 -3.91533,-6.36663 -0.40295,-0.785181 -0.8059,-1.570363 -1.20884,-2.355544 -5.45931,-10.513329 -20.29618,-2.776445 -14.83686,7.736884 v 0 c 0.51319,0.97909 1.02639,1.95818 1.53958,2.93727 2.60681,4.60996 5.12773,9.45359 8.99227,13.14651 9.62701,7.39867 20.06832,-6.24463 10.44132,-13.6433 z" />
    <path
       style="fill:#cde8e5;fill-opacity:1;stroke-width:0.912664"
       id="path1298"
       d="m 253.26902,89.222815 c -3.22831,-1.32461 -6.24339,-3.11207 -9.24332,-4.88113 -2.14055,-1.32774 -4.21326,-2.76039 -6.29918,-4.17146 -9.94083,-6.55485 -19.19132,7.53321 -9.25049,14.08805 v 0 c 2.31418,1.48598 4.60471,3.00753 6.91882,4.49365 3.38212,2.069815 6.77101,4.138735 10.33116,5.891925 10.88141,5.34496 18.42443,-10.076085 7.54301,-15.421035 z"
       inkscape:transform-center-y="-1.4946815"
       inkscape:transform-center-x="1.7958709e-06" />
  </g>
</svg>
