<svg xmlns="http://www.w3.org/2000/svg" xmlns:xlink="http://www.w3.org/1999/xlink" version="1.1" width="500" height="500" viewBox="0 0 500 500">
<g>
<path d="M253.367 66.121H252.691L254.719 53.258C247.691 57.121 246.188 70.992 245.172 78.305 241.441 105.211 252.699 133.363 283.094 135.852 274.242 144.801 279.023 151.926 279.039 162.93 279.074 184.641 280.43 205.586 277.883 227.242 277.012 234.633 275.465 249.195 279.719 255.613 285.707 264.652 307.074 261.473 312.648 253.586 317.016 247.41 315.398 238.34 314.73 231.305 313.75 220.988 314.168 210.535 314.168 200.164 349.645 195.648 390.613 166.203 371.418 126.371 368.793 120.93 365.305 115.723 360.773 111.676 339.949 93.066 316.332 109.055 293.227 110.098 282.871 110.566 269.355 105.781 267.703 93.875 266.98 88.688 270.277 82.02 273.762 78.371 275.055 77.012 279.52 75.043 279.48 72.957 279.379 67.441 268.406 73.914 266.879 74.922 268.809 70.211 272.484 64.438 272.992 59.359 273.645 52.801 266.359 57.898 264.625 60.031 263.137 61.863 261.723 63.699 260.125 65.445 261.191 62.879 265.984 56.289 263.613 53.68 259.395 49.035 254.148 63.723 253.367 66.121M220.941 53.934 220.266 65.445H218.914C218.551 61.414 217.129 57.996 212.836 57.32V69.504H212.16C211.746 67.766 207.691 60.625 205.84 64.984 204.465 68.223 208.676 74.254 209.238 77.629 210.707 86.477 207.875 96.41 202.352 103.352 196.625 110.547 185.273 113.625 177.703 118.754 158.059 132.059 138.457 148.832 129.781 171.73 114.926 210.945 143.062 256.371 183.785 263.18 201.148 266.082 230.445 266.512 240.551 248.23 244.992 240.199 242.223 223.203 231.074 222.691 221.832 222.27 214.629 230.254 206.078 232.105 191.156 235.332 173.484 218.672 170.469 204.902 165.797 183.566 179.402 164.195 194.594 150.871 199.797 146.305 206.52 143.664 211.281 138.496 217.285 131.98 221.605 123.094 224.707 114.863 229.145 103.078 231.145 90.414 236.652 78.984 237.926 76.344 244.148 69.902 241.473 67.207 238.148 63.859 232.84 70.492 230.398 72.215 230.102 65.309 229.176 55.141 220.941 53.934M337.812 58.355C316.863 63.359 324.859 98.191 347.273 92.84 368.477 87.777 359.148 53.262 337.812 58.355M125.012 103.035C100.918 108.578 104.332 152.531 131.766 146.223 158.777 140.008 153.699 96.438 125.012 103.035M314.168 172.406C314.168 161.453 320.57 140.844 306.062 136.527 318.879 130.762 353.414 123.918 349.078 148.715 346.586 162.941 326.359 170.039 314.168 172.406ZM314.168 172.406" fill="#649ca7"/>
<path d="M286.02 259.727C284.688 259.242 282.914 258.348 282.078 257.73 280.242 256.379 278.438 252.973 277.777 249.617 277.082 246.066 277.203 235.395 278.023 227.969 279.418 215.367 279.809 202.816 279.488 181.125 279.281 167.215 278.934 158.055 278.465 154.148 277.48 145.934 278.207 142.238 281.668 137.906 282.461 136.914 283.02 136.012 282.91 135.898 282.797 135.789 281.023 135.402 278.965 135.043 262.004 132.074 250.324 120.191 246.125 101.645 244.883 96.16 244.469 86.383 245.207 79.977 246.66 67.336 248.945 59.508 252.293 55.707 254.527 53.168 254.543 53.246 253.332 60.797 252.293 67.258 252.863 67.801 255.051 62.438 257.859 55.551 260.637 52.23 262.672 53.32 264.684 54.402 264.223 57.438 261.242 62.734 260.453 64.129 259.91 65.371 260.035 65.492 260.156 65.613 261.363 64.367 262.715 62.723 265.594 59.223 267.199 57.848 269.57 56.855 273.957 55.02 273.715 59.691 268.895 70.031 267.828 72.316 266.957 74.395 266.957 74.652 266.957 74.91 268.074 74.496 269.438 73.73 273.25 71.598 276.684 70.613 278.082 71.254 279.859 72.062 279.504 73.43 277 75.445 273.016 78.645 271.277 80.727 269.469 84.461 267.848 87.805 267.691 88.48 267.68 92.148 267.664 97.113 268.785 99.734 272.473 103.363 277.078 107.891 283.516 110.113 292.043 110.129 297.902 110.137 301.789 109.512 315.602 106.355 327.371 103.668 331.527 103.035 337.387 103.035 354.445 103.035 368.398 115.074 374.465 135.027 375.609 138.797 375.746 139.984 375.754 146.34 375.762 153.059 375.684 153.68 374.266 157.934 371.723 165.586 367.016 172.809 360.82 178.559 350.086 188.531 335.793 195.676 320.223 198.852 317.18 199.473 314.469 200.117 314.203 200.281 313.516 200.707 313.578 215.977 314.305 226.387 314.629 231.039 314.895 237.93 314.895 241.703 314.895 248.27 314.836 248.684 313.566 251.277 310.637 257.25 303.25 260.633 293.168 260.609 289.785 260.602 287.758 260.352 286.02 259.727ZM321.27 170.863C330.535 168.203 337.699 164.5 342.742 159.77 346.324 156.414 347.922 153.859 348.949 149.836 351.117 141.359 347.797 134.398 340.496 132.102 337.191 131.066 328.871 130.707 324.02 131.398 317.586 132.312 306.156 135.625 306.156 136.578 306.156 136.766 306.859 137.176 307.719 137.484 309.938 138.289 312.246 140.715 313.668 143.738 314.824 146.188 314.895 146.766 314.895 153.676 314.895 157.711 314.703 163.645 314.465 166.863L314.039 172.715 315.648 172.367C316.531 172.176 319.062 171.5 321.27 170.863ZM321.27 170.863" fill="#7ab2b2"/>
<path d="M337.438 92.234C332.855 90.59 328.359 85.656 326.805 80.555 326.488 79.512 326.234 76.637 326.238 74.164 326.25 68.523 327.336 65.801 330.938 62.391 332.922 60.512 334.117 59.82 336.848 58.992 344.883 56.547 352.355 59.77 356.344 67.398 361.461 77.199 358.812 87.602 350.191 91.559 346.652 93.184 340.926 93.488 337.438 92.234ZM337.438 92.234" fill="#7ab2b2"/>
<path d="M189.344 263.699C186.527 263.355 182.598 262.715 180.605 262.273 153.719 256.289 131.75 232.688 126.941 204.609 126.004 199.145 126.008 188.617 126.949 183.199 128.973 171.559 135.184 158.969 144.316 147.996 154.617 135.621 172.344 121.344 185.738 114.633 198.078 108.445 202.246 105.113 205.492 98.844 208.59 92.855 209.566 88.992 209.57 82.684 209.574 77.469 209.504 77.062 207.793 72.883 205.836 68.105 205.477 65.527 206.609 64.395 207.703 63.297 209.086 64.262 210.809 67.324 211.609 68.742 212.457 69.906 212.691 69.906 212.926 69.906 213.117 67.137 213.117 63.754 213.117 60.371 213.234 57.602 213.379 57.602 213.52 57.602 214.234 57.91 214.961 58.285 216.637 59.156 217.66 60.719 218.352 63.473 218.738 65.008 219.137 65.648 219.715 65.648 220.422 65.648 220.57 64.93 220.824 60.141 220.988 57.109 221.215 54.535 221.332 54.418 222.164 53.586 226.371 56.793 227.621 59.211 228.723 61.34 229.582 64.922 229.938 68.84 230.258 72.367 230.516 72.797 231.543 71.555 231.871 71.156 233.406 69.879 234.953 68.715 238.051 66.383 239.859 66.031 241.191 67.508 242.363 68.805 241.84 70.609 239.066 74.871 234.98 81.141 233.641 84.586 228.66 101.574 224.367 116.211 220.906 124.434 215.703 132.348 212.363 137.43 208.738 140.824 201.547 145.613 184.23 157.145 171.613 175.305 169.645 191.535 168.492 201.02 170.23 208.301 175.496 216.047 181.629 225.074 191.785 231.809 200.387 232.562 205.078 232.973 207.898 232.137 216.66 227.738 227.23 222.43 230.633 221.797 235.418 224.246 240.508 226.848 243.629 236.641 241.734 244.055 240.156 250.219 235.254 255.668 227.996 259.332 219.266 263.738 203.949 265.469 189.344 263.699ZM189.344 263.699" fill="#4d869c"/>
<path d="M121.945 145.93C114.352 143.879 109.219 135.801 109.219 125.914 109.219 114.031 116.078 104.906 126.457 102.984 137.996 100.844 147.227 107.871 149.012 120.148 150.023 127.098 147.723 134.457 142.984 139.438 137.48 145.219 129 147.836 121.945 145.93ZM121.945 145.93" fill="#4d869c"/>
<path d="M119.609 134.98C119.609 134.98 126.219 144.918 138.973 134.035 151.723 123.148 119.609 134.98 119.609 134.98ZM119.609 134.98" fill="#4d869c"/>
<path d="M119.25 129.738C119.219 131.039 119.582 132 120.262 133.086 121.078 134.223 122.285 134.93 123.5 135.559 124.695 136.145 125.949 136.578 127.227 136.949 128.297 137.266 129.406 137.375 130.516 137.438 131.551 137.504 132.59 137.406 133.617 137.281 134.953 137.137 136.176 136.617 137.375 136.047 138.484 135.516 139.434 134.73 140.332 133.902 140.445 133.781 140.559 133.664 140.672 133.543 142.148 131.961 139.914 129.867 138.438 131.449 138.375 131.52 138.312 131.59 138.25 131.656 137.59 132.277 136.902 132.891 136.078 133.285 135.168 133.715 134.27 134.145 133.254 134.246 132.398 134.344 131.539 134.438 130.676 134.379 129.797 134.336 128.918 134.258 128.066 134.012 126.98 133.703 125.91 133.344 124.895 132.844 124.152 132.465 123.375 132.062 122.82 131.422 122.465 130.91 122.258 130.375 122.324 129.738 122.324 127.559 119.25 127.559 119.25 129.738ZM119.25 129.738" fill="#7ab2b2"/>
<path d="M337.484 86.137C339.016 86.41 340.559 86.57 342.109 86.684 343.48 86.797 344.848 86.805 346.219 86.707 347.266 86.609 348.27 86.273 349.234 85.867 350.07 85.473 350.879 85.027 351.594 84.438 352.223 83.863 352.785 83.246 353.262 82.539 354.453 80.727 351.895 79.039 350.703 80.852 350.398 81.34 350 81.727 349.582 82.121 349.18 82.555 348.539 82.738 348.047 83.047 347.391 83.328 346.711 83.574 345.996 83.656 344.773 83.75 343.555 83.762 342.328 83.656 340.926 83.555 339.527 83.418 338.148 83.133 336.031 82.66 335.367 85.664 337.484 86.133ZM337.484 86.137" fill="#4d869c"/>
<path d="M277.926 43.453C279.41 42.035 281.156 40.852 282.887 39.691 284.555 38.605 283.746 39.129 285.316 38.117 289.594 35.289 285.199 29.773 280.922 32.605 279.363 33.664 280.176 33.113 278.48 34.254 277.027 35.234 275.598 36.23 274.195 37.266 273.301 37.93 272.895 38.188 272.172 38.895 271.949 39.109 271.746 39.348 271.535 39.57 268.52 43.688 274.91 47.57 277.926 43.453ZM277.926 43.453" fill="#cde8e5"/>
<path d="M261.699 36.152C262.445 35.039 263.312 34.016 264.152 32.969 264.801 32.168 265.508 31.422 266.27 30.73 270.18 27.059 264.996 21.516 261.086 25.188 260.102 26.137 259.16 27.129 258.293 28.188 257.426 29.234 256.543 30.273 255.699 31.344 252.305 35.594 258.305 40.406 261.699 36.152ZM261.699 36.152" fill="#cde8e5"/>
<path d="M243.129 35.273C243.082 33.051 242.926 30.828 242.75 28.609 242.719 28.168 242.684 27.727 242.648 27.285 242.234 21.996 234.766 22.582 235.18 27.875 235.215 28.312 235.25 28.75 235.285 29.184 235.438 31.211 235.582 33.242 235.465 35.273 235.465 40.703 243.129 40.703 243.129 35.273ZM243.129 35.273" fill="#cde8e5"/>
<path d="M222.281 32.602C222.34 32.648 222.488 32.812 222.461 32.742 222.414 32.637 222.301 32.57 222.23 32.477 222.09 32.305 221.953 32.133 221.828 31.949 221.191 31.035 220.633 30.062 220.074 29.098 219.895 28.746 219.715 28.395 219.535 28.043 217.09 23.336 210.445 26.801 212.891 31.508 213.121 31.949 213.352 32.387 213.578 32.824 214.746 34.891 215.875 37.059 217.605 38.711 221.918 42.023 226.594 35.914 222.281 32.602ZM222.281 32.602" fill="#cde8e5"/>
<path d="M206.906 38.254C205.461 37.66 204.113 36.859 202.77 36.066 201.809 35.473 200.883 34.832 199.949 34.199 195.496 31.266 191.355 37.574 195.805 40.508 196.84 41.172 197.867 41.855 198.902 42.52 200.418 43.445 201.934 44.375 203.531 45.16 208.402 47.551 211.781 40.645 206.906 38.254ZM206.906 38.254" fill="#cde8e5"/>
<path d="M84.242 375.676C78.398 382.391 69.461 385.75 57.434 385.75 57.332 385.75 57.184 385.75 56.984 385.75 56.781 385.75 56.633 385.75 56.531 385.75 53.625 385.75 50.887 385.266 48.312 384.293 45.742 383.324 43.52 382.039 41.648 380.438 39.812 378.801 38.207 376.93 36.84 374.824 35.5 372.688 34.484 370.449 33.781 368.109 33.113 365.738 32.777 363.348 32.777 360.941 32.777 356.066 33.297 351.305 34.332 346.66 35.367 342.016 36.77 337.84 38.543 334.133 40.312 330.391 42.383 326.949 44.754 323.809 47.129 320.668 49.633 318.047 52.273 315.941 54.945 313.84 57.703 312.219 60.539 311.082 63.379 309.914 66.152 309.328 68.859 309.328 71.133 309.328 73.254 309.562 75.223 310.031 75.656 309.062 76.293 308.277 77.129 307.676 77.965 307.074 78.863 306.707 79.832 306.57 80.133 306.539 80.367 306.523 80.535 306.523 81.805 306.523 83.008 306.938 84.145 307.773 85.277 308.578 85.996 309.695 86.297 311.133 86.332 311.199 86.48 313.219 86.75 317.195 87.051 321.137 87.199 323.176 87.199 323.309 87.199 325.012 86.598 326.668 85.395 328.27 84.227 329.875 82.992 330.742 81.688 330.875 81.387 330.91 81.152 330.926 80.988 330.926 79.516 330.926 78.164 330.441 76.926 329.473 75.691 328.469 75.074 327.219 75.074 325.715 75.074 325.113 75.141 323.809 75.273 321.805 75.207 321.805 75.039 321.707 74.773 321.504 74.504 321.305 74.32 321.172 74.223 321.105 74.121 321.039 73.938 320.922 73.672 320.754 73.402 320.555 73.188 320.418 73.02 320.352 72.887 320.254 72.684 320.137 72.418 320 72.148 319.867 71.918 319.77 71.715 319.699 71.516 319.633 71.281 319.566 71.016 319.5 70.781 319.398 70.547 319.332 70.312 319.301 70.078 319.266 69.844 319.25 69.609 319.25 67.539 319.25 65.336 319.918 62.996 321.254 60.656 322.59 58.402 324.477 56.23 326.918 54.094 329.355 52.141 332.129 50.367 335.234 48.633 338.344 47.227 341.867 46.16 345.809 45.125 349.75 44.605 353.695 44.605 357.637 44.605 360.508 45.191 363.281 46.359 365.953 47.527 368.594 49.133 370.75 51.172 372.418 53.207 374.09 55.395 374.926 57.734 374.926 60.574 374.926 63.332 374.523 66.004 373.723 68.711 372.918 70.863 372.066 72.469 371.164 74.105 370.262 75.625 369.262 77.027 368.16 79 366.754 80.637 366.055 81.938 366.055 82.906 366.055 83.793 366.355 84.594 366.957 85.965 367.957 86.648 369.211 86.648 370.715 86.648 372.219 85.848 373.871 84.242 375.676ZM84.242 375.676" fill="#4d869c"/>
<path d="M136.059 386.602C135.727 386.633 135.426 386.648 135.156 386.648 132.016 386.648 129.945 384.746 128.941 380.938L128.895 380.887C128.828 380.418 128.742 379.934 128.641 379.434 128.574 378.934 128.492 378.383 128.391 377.781 128.293 377.145 128.207 376.645 128.141 376.277 123.832 382.59 118.453 385.75 112.004 385.75 109.566 385.68 107.227 385.18 104.988 384.246 102.785 383.344 100.879 382.141 99.277 380.637 97.672 379.133 96.289 377.445 95.117 375.574 93.949 373.703 93.062 371.766 92.461 369.762 91.859 367.758 91.559 365.805 91.559 363.898 91.559 360.156 91.844 356.715 92.41 353.578 93.012 350.402 93.816 347.648 94.816 345.309 95.852 342.938 97.105 340.832 98.574 338.992 100.047 337.156 101.633 335.637 103.336 334.434 105.039 333.199 106.91 332.18 108.949 331.379 110.988 330.574 113.023 330.008 115.062 329.672 117.133 329.34 119.305 329.172 121.578 329.172 125.387 329.172 128.625 329.84 131.297 331.176 133.973 332.48 136.711 334.684 139.516 337.793L139.766 338.043 139.719 338.395C138.648 346.645 138.113 353.16 138.113 357.938 138.113 364.184 139.051 371.434 140.918 379.684 141.121 380.488 141.219 381.172 141.219 381.738 141.219 383.176 140.77 384.312 139.867 385.148 138.965 385.98 137.695 386.465 136.059 386.602ZM103.836 360.641C103.836 362.879 104.137 365.07 104.738 367.207 105.375 369.344 106.375 371.184 107.746 372.719 109.117 374.254 110.688 375.023 112.457 375.023 114.426 375.023 116.383 374.324 118.32 372.918 120.258 371.484 121.91 369.777 123.281 367.809 124.684 365.805 125.82 363.648 126.688 361.344 126.723 355.465 127.09 349.301 127.789 342.852 126.422 341.816 125.152 341.082 123.98 340.648 122.812 340.215 121.242 339.996 119.273 339.996 118.137 339.996 116.918 340.195 115.613 340.598 114.344 341 112.992 341.699 111.555 342.703 110.152 343.703 108.883 344.957 107.746 346.461 106.609 347.93 105.676 349.902 104.941 352.375 104.203 354.848 103.836 357.602 103.836 360.641ZM148.387 375.125C148.086 373.957 147.934 372.887 147.934 371.918 147.934 369.379 148.973 367.625 151.043 366.656 151.91 366.223 152.879 366.004 153.949 366.004 155.25 366.004 156.473 366.371 157.605 367.105 158.742 367.84 159.629 368.961 160.262 370.465 160.629 371.367 160.914 372.016 161.113 372.418 161.316 372.785 161.598 373.238 161.965 373.77 162.367 374.273 162.801 374.625 163.27 374.824 163.738 375.023 164.34 375.207 165.074 375.375 165.844 375.508 166.762 375.574 167.828 375.574 169.633 375.574 171.789 375.141 174.293 374.273 176.832 373.402 179.105 372.234 181.109 370.766 183.148 369.293 184.25 367.84 184.418 366.406 184.418 366.34 184.418 366.289 184.418 366.254 184.418 365.555 183.949 364.918 183.012 364.352 182.078 363.75 180.758 363.215 179.055 362.746 177.352 362.277 175.598 361.844 173.793 361.445 171.988 361.008 169.883 360.508 167.48 359.941 165.074 359.371 163.02 358.82 161.316 358.285 157.207 356.949 154.398 355.496 152.895 353.926 151.426 352.324 150.691 350.035 150.691 347.062 150.691 341.484 153.848 337.125 160.164 333.984 166.477 330.844 175.695 329.273 187.824 329.273 188.359 329.34 188.809 329.523 189.176 329.824 189.945 330.492 190.629 331.879 191.23 333.984 191.867 336.086 192.285 337.824 192.484 339.195 192.719 340.531 192.852 341.5 192.887 342.102 192.953 342.703 192.984 343.188 192.984 343.555 192.984 346.359 191.867 348.098 189.629 348.766 188.992 348.965 188.391 349.066 187.824 349.066 186.621 349.066 185.535 348.715 184.566 348.016 183.598 347.277 182.945 346.492 182.613 345.66 181.676 343.586 180.941 341.582 180.406 339.645 177.566 339.68 174.812 339.996 172.141 340.598 169.465 341.164 167.195 342 165.324 343.102 163.488 344.207 162.566 345.41 162.566 346.711 162.566 346.879 162.586 346.996 162.617 347.062 162.617 347.129 162.637 347.195 162.668 347.262 163.27 348.434 166.629 349.602 172.742 350.77 174.879 351.203 176.816 351.641 178.555 352.074 180.289 352.473 182.094 352.992 183.965 353.625 185.871 354.227 187.523 354.914 188.926 355.68 190.328 356.449 191.598 357.301 192.734 358.238 193.906 359.172 194.789 360.258 195.391 361.492 195.992 362.73 196.293 364.066 196.293 365.504 196.293 365.938 196.258 366.406 196.191 366.906 195.691 370.883 194.02 374.355 191.184 377.328 188.344 380.27 184.785 382.473 180.508 383.945 176.266 385.414 171.605 386.148 166.527 386.148 164.523 386.148 162.566 385.934 160.664 385.496 158.793 385.062 157.004 384.41 155.301 383.543 153.633 382.707 152.18 381.57 150.941 380.137 149.738 378.664 148.887 376.996 148.387 375.125ZM251.164 377.781C251.164 379.984 250.562 381.707 249.359 382.941 248.191 384.211 246.789 384.848 245.152 384.848 245.086 384.848 245 384.848 244.902 384.848 243.398 384.777 242.012 384.16 240.742 382.992 239.508 381.855 238.887 380.418 238.887 378.684 238.887 376.645 238.938 373.336 239.039 368.762 239.172 364.148 239.238 360.492 239.238 357.785 239.238 356.785 239.238 355.816 239.238 354.879 239.207 353.207 239.105 351.672 238.938 350.27 238.77 348.832 238.488 347.43 238.086 346.059 237.719 344.691 237.152 343.621 236.383 342.852 235.613 342.051 234.711 341.648 233.676 341.648 231.707 341.684 229.883 342.016 228.215 342.652 226.578 343.254 225.207 344.039 224.105 345.008 223.035 345.941 222.066 347.027 221.199 348.266 220.363 349.469 219.695 350.652 219.195 351.824 218.727 352.957 218.344 354.094 218.043 355.23 217.742 356.367 217.539 357.27 217.441 357.938 217.375 358.605 217.34 359.09 217.34 359.391H215.738V359.289H217.34C217.34 359.723 217.324 360.391 217.289 361.293 217.258 362.164 217.238 362.812 217.238 363.246 217.207 364.383 217.191 365.938 217.191 367.91 217.191 369.848 217.172 371.301 217.141 372.27 217.141 373.238 217.09 374.406 216.988 375.777 216.922 377.113 216.82 378.348 216.688 379.484 216.488 381.086 215.738 382.355 214.434 383.293 213.129 384.262 211.676 384.746 210.074 384.746 210.039 384.746 209.992 384.746 209.922 384.746 209.891 384.746 209.855 384.746 209.824 384.746 208.32 384.746 207.051 384.277 206.016 383.344 205.012 382.406 204.512 381.121 204.512 379.484 204.512 379.316 204.512 379.082 204.512 378.781 204.68 376.609 204.914 372.434 205.215 366.254 205.516 360.074 205.664 355.363 205.664 352.125 205.664 351.289 205.648 350.672 205.613 350.27 205.348 344.254 205.215 336.754 205.215 327.77 205.215 320.754 205.281 314.855 205.414 310.078 205.445 308.008 206.031 306.438 207.168 305.367 208.305 304.266 209.656 303.715 211.227 303.715 211.262 303.715 211.309 303.715 211.375 303.715 211.445 303.715 211.492 303.715 211.527 303.715 213.23 303.715 214.617 304.234 215.688 305.27 216.789 306.305 217.34 307.809 217.34 309.777 217.34 315.793 217.406 325.516 217.539 338.945 219.41 336.406 221.949 334.352 225.156 332.781 228.398 331.176 232.355 330.375 237.035 330.375 238.973 330.375 240.691 330.727 242.195 331.426 243.699 332.129 244.934 333.082 245.902 334.285 246.906 335.453 247.723 336.871 248.359 338.543 249.027 340.18 249.496 341.918 249.762 343.754 250.031 345.559 250.164 347.512 250.164 349.617 250.164 349.785 250.164 349.969 250.164 350.168 250.164 350.672 250.164 351.172 250.164 351.672 250.164 355.281 250.332 359.957 250.664 365.703 251 371.449 251.164 375.477 251.164 377.781ZM251.164 377.781" fill="#eef7ff"/>
<path d="M271.16 379.332C271.16 379.402 271.16 379.469 271.16 379.535 271.16 381.105 270.508 382.324 269.207 383.191 267.902 384.094 266.449 384.547 264.848 384.547 264.711 384.547 264.594 384.527 264.496 384.496 262.992 384.43 261.688 383.961 260.586 383.094 259.516 382.258 258.984 381.02 258.984 379.383 258.984 379.219 259 379 259.031 378.734 259.133 377.531 259.184 375.492 259.184 372.617 259.184 370.047 259.133 366.84 259.031 362.996 258.965 359.156 258.867 354.41 258.73 348.766 258.633 343.121 258.547 338.844 258.48 335.938 258.414 332.695 258.383 330.273 258.383 328.672 258.383 327.199 258.449 323.961 258.582 318.949L258.531 318.898C258.5 318.867 258.465 318.832 258.43 318.801 258.363 318.73 258.316 318.684 258.281 318.648 258.246 318.617 258.199 318.547 258.129 318.449 257.629 317.715 257.379 316.945 257.379 316.145 257.379 315.074 257.746 314.07 258.48 313.137 259.25 312.168 260.117 311.582 261.086 311.383 263.625 310.816 267.27 310.363 272.012 310.031 276.789 309.695 280.164 309.527 282.133 309.527 286.945 309.527 291.223 310.379 294.961 312.086 298.738 313.754 301.727 316.293 303.934 319.699 306.172 323.109 307.324 327.152 307.391 331.828 307.391 335.672 306.754 339.312 305.484 342.754 304.215 346.16 302.461 349.117 300.223 351.621 297.984 354.129 295.23 356.117 291.957 357.586 288.715 359.023 285.207 359.738 281.434 359.738 276.59 359.738 272.664 359.441 269.656 358.84 269.789 361.477 269.941 364 270.109 366.406 270.309 368.809 270.508 371.316 270.707 373.922 270.941 376.496 271.094 378.297 271.16 379.332ZM282.133 319.5C279.93 319.5 275.871 319.75 269.957 320.254 269.922 321.523 269.855 323.727 269.758 326.867 269.656 329.973 269.574 333.148 269.508 336.387 269.438 339.594 269.406 342.734 269.406 345.809 269.406 346.746 269.406 347.648 269.406 348.516 271.91 349.352 274.902 349.77 278.375 349.77 280.281 349.77 282.016 349.633 283.586 349.367 285.191 349.066 286.562 348.684 287.695 348.215 288.867 347.746 289.902 347.145 290.805 346.41 291.738 345.676 292.508 344.957 293.109 344.254 293.711 343.52 294.211 342.652 294.613 341.648 295.047 340.648 295.363 339.762 295.562 338.992 295.797 338.191 295.965 337.258 296.066 336.188 296.199 335.117 296.281 334.266 296.316 333.633 296.348 332.965 296.367 332.164 296.367 331.227 296.367 329.422 296.031 327.82 295.363 326.414 294.695 324.98 293.844 323.844 292.809 323.008 291.805 322.172 290.637 321.488 289.301 320.953 287.996 320.387 286.746 320 285.543 319.801 284.371 319.602 283.238 319.5 282.133 319.5ZM282.133 319.5" fill="#7ab2b2"/>
<path d="M359.758 386.602C359.422 386.633 359.121 386.648 358.855 386.648 355.715 386.648 353.645 384.746 352.641 380.938L352.59 380.887C352.523 380.418 352.441 379.934 352.34 379.434 352.273 378.934 352.191 378.383 352.09 377.781 351.988 377.145 351.906 376.645 351.84 376.277 347.531 382.59 342.152 385.75 335.703 385.75 333.266 385.68 330.926 385.18 328.688 384.246 326.484 383.344 324.578 382.141 322.977 380.637 321.371 379.133 319.984 377.445 318.816 375.574 317.648 373.703 316.762 371.766 316.16 369.762 315.559 367.758 315.258 365.805 315.258 363.898 315.258 360.156 315.543 356.715 316.109 353.578 316.711 350.402 317.512 347.648 318.516 345.309 319.551 342.938 320.805 340.832 322.273 338.992 323.742 337.156 325.332 335.637 327.035 334.434 328.738 333.199 330.609 332.18 332.648 331.379 334.684 330.574 336.723 330.008 338.762 329.672 340.832 329.34 343.004 329.172 345.273 329.172 349.082 329.172 352.324 329.84 354.996 331.176 357.668 332.48 360.41 334.684 363.215 337.793L363.465 338.043 363.414 338.395C362.348 346.645 361.812 353.16 361.812 357.938 361.812 364.184 362.746 371.434 364.617 379.684 364.816 380.488 364.918 381.172 364.918 381.738 364.918 383.176 364.469 384.312 363.566 385.148 362.664 385.98 361.395 386.465 359.758 386.602ZM327.535 360.641C327.535 362.879 327.836 365.07 328.438 367.207 329.07 369.344 330.074 371.184 331.445 372.719 332.812 374.254 334.383 375.023 336.156 375.023 338.125 375.023 340.078 374.324 342.016 372.918 343.957 371.484 345.609 369.777 346.98 367.809 348.383 365.805 349.516 363.648 350.387 361.344 350.418 355.465 350.785 349.301 351.488 342.852 350.117 341.816 348.848 341.082 347.68 340.648 346.512 340.215 344.941 339.996 342.969 339.996 341.832 339.996 340.613 340.195 339.312 340.598 338.043 341 336.688 341.699 335.254 342.703 333.848 343.703 332.578 344.957 331.445 346.461 330.309 347.93 329.371 349.902 328.637 352.375 327.902 354.848 327.535 357.602 327.535 360.641ZM421.543 377.98C421.543 378.082 421.543 378.199 421.543 378.332 421.543 379.77 421.078 380.988 420.141 381.988 419.207 382.957 417.621 383.441 415.383 383.441 414.512 383.441 408.434 383.375 397.141 383.242 385.883 383.141 378.566 383.094 375.191 383.094 373.453 383.094 372.152 382.609 371.281 381.641 370.414 380.637 369.98 379.402 369.98 377.93 369.98 377.898 369.98 377.848 369.98 377.781 369.98 377.68 369.98 377.613 369.98 377.578 369.98 376.043 370.414 374.773 371.281 373.77 372.184 372.77 373.52 372.27 375.293 372.27 378.363 372.27 383.375 372.336 390.324 372.469 390.324 370.562 390.273 368.66 390.176 366.754 390.109 364.719 390.074 361.395 390.074 356.785 390.074 343.922 390.293 330.109 390.727 315.34 388.688 315.477 384.93 315.543 379.449 315.543 377.848 315.543 376.562 315.023 375.594 313.988 374.625 312.918 374.141 311.633 374.141 310.129 374.141 310.098 374.141 310.062 374.141 310.031 374.172 309.961 374.188 309.914 374.188 309.879 374.188 308.543 374.625 307.406 375.492 306.473 376.359 305.504 377.648 305.02 379.352 305.02 383.828 305.02 387.504 304.969 390.375 304.867 393.25 304.734 395.051 304.668 395.789 304.668 396.121 304.668 396.621 304.684 397.289 304.719 397.992 304.719 398.461 304.719 398.695 304.719 399.863 304.719 400.699 305.285 401.199 306.422 401.367 306.523 401.551 306.637 401.75 306.773 402.352 307.273 402.652 307.906 402.652 308.676V308.828C402.285 310.863 401.984 316.426 401.75 325.516 401.551 334.566 401.449 341.465 401.449 346.211 401.449 352.859 401.484 358.438 401.551 362.949 401.551 365.688 401.617 369.062 401.75 373.07 403.621 373.102 405.609 373.152 407.715 373.219 409.852 373.254 411.574 373.285 412.875 373.32 414.211 373.355 415.113 373.371 415.582 373.371 419.391 373.371 421.379 374.906 421.543 377.98ZM428.008 375.125C427.707 373.957 427.559 372.887 427.559 371.918 427.559 369.379 428.594 367.625 430.664 366.656 431.535 366.223 432.504 366.004 433.57 366.004 434.875 366.004 436.094 366.371 437.23 367.105 438.367 367.84 439.25 368.961 439.887 370.465 440.254 371.367 440.535 372.016 440.738 372.418 440.938 372.785 441.223 373.238 441.59 373.77 441.988 374.273 442.426 374.625 442.891 374.824 443.359 375.023 443.961 375.207 444.695 375.375 445.465 375.508 446.383 375.574 447.453 375.574 449.258 375.574 451.41 375.141 453.918 374.273 456.457 373.402 458.727 372.234 460.73 370.766 462.77 369.293 463.871 367.84 464.039 366.406 464.039 366.34 464.039 366.289 464.039 366.254 464.039 365.555 463.57 364.918 462.637 364.352 461.699 363.75 460.383 363.215 458.676 362.746 456.973 362.277 455.219 361.844 453.414 361.445 451.613 361.008 449.508 360.508 447.102 359.941 444.695 359.371 442.641 358.82 440.938 358.285 436.828 356.949 434.023 355.496 432.52 353.926 431.051 352.324 430.312 350.035 430.312 347.062 430.312 341.484 433.473 337.125 439.785 333.984 446.098 330.844 455.32 329.273 467.445 329.273 467.98 329.34 468.434 329.523 468.801 329.824 469.566 330.492 470.254 331.879 470.855 333.984 471.488 336.086 471.906 337.824 472.105 339.195 472.34 340.531 472.477 341.5 472.508 342.102 472.574 342.703 472.609 343.188 472.609 343.555 472.609 346.359 471.488 348.098 469.25 348.766 468.617 348.965 468.016 349.066 467.445 349.066 466.242 349.066 465.16 348.715 464.191 348.016 463.223 347.277 462.57 346.492 462.234 345.66 461.301 343.586 460.566 341.582 460.031 339.645 457.191 339.68 454.434 339.996 451.762 340.598 449.09 341.164 446.816 342 444.945 343.102 443.109 344.207 442.191 345.41 442.191 346.711 442.191 346.879 442.207 346.996 442.242 347.062 442.242 347.129 442.258 347.195 442.289 347.262 442.891 348.434 446.25 349.602 452.363 350.77 454.5 351.203 456.438 351.641 458.176 352.074 459.914 352.473 461.719 352.992 463.59 353.625 465.492 354.227 467.145 354.914 468.551 355.68 469.953 356.449 471.223 357.301 472.359 358.238 473.527 359.172 474.414 360.258 475.012 361.492 475.613 362.73 475.914 364.066 475.914 365.504 475.914 365.938 475.883 366.406 475.816 366.906 475.312 370.883 473.645 374.355 470.805 377.328 467.965 380.27 464.406 382.473 460.129 383.945 455.887 385.414 451.227 386.148 446.148 386.148 444.145 386.148 442.191 385.934 440.285 385.496 438.414 385.062 436.629 384.41 434.926 383.543 433.254 382.707 431.801 381.57 430.566 380.137 429.363 378.664 428.512 376.996 428.008 375.125ZM428.008 375.125" fill="#eef7ff"/>
</g>
</svg>
